<svg width="24" height="24" viewBox="0 0 24 24" fill="none" xmlns="http://www.w3.org/2000/svg"><path d="M11.7412 0.246897C11.8861 0.108695 12.1139 0.108695 12.2588 0.246897L13.9535 1.86336C14.056 1.96117 14.2049 1.99283 14.3384 1.94518L16.544 1.15773C16.7325 1.0904 16.9407 1.1831 17.0169 1.36828L17.9075 3.53426C17.9614 3.66532 18.0846 3.75481 18.2259 3.76557L20.5611 3.94329C20.7607 3.95848 20.9132 4.12784 20.9075 4.32799L20.8401 6.66896C20.836 6.81061 20.9122 6.94247 21.0369 7.00976L23.0979 8.12193C23.2741 8.21701 23.3445 8.43376 23.2578 8.61426L22.2442 10.7254C22.1828 10.8532 22.1987 11.0046 22.2853 11.1168L23.7158 12.9711C23.8381 13.1297 23.8143 13.3563 23.6617 13.4859L21.8769 15.0023C21.7689 15.0941 21.7219 15.2389 21.7553 15.3766L22.3079 17.6524C22.3551 17.847 22.2412 18.0443 22.0491 18.1007L19.8019 18.7601C19.6659 18.8 19.564 18.9131 19.5385 19.0525L19.1177 21.3563C19.0817 21.5533 18.8973 21.6872 18.6989 21.6606L16.3778 21.3489C16.2373 21.3301 16.0983 21.392 16.0183 21.509L14.6968 23.4425C14.5838 23.6078 14.3609 23.6551 14.1904 23.5501L12.1968 22.3213C12.0761 22.2469 11.9239 22.2469 11.8032 22.3213L9.80957 23.5501C9.63912 23.6551 9.4162 23.6078 9.30322 23.4425L7.98171 21.509C7.90174 21.392 7.76266 21.3301 7.62221 21.3489L5.3011 21.6606C5.10265 21.6872 4.91828 21.5533 4.8823 21.3563L4.46146 19.0525C4.43599 18.9131 4.33412 18.8 4.19814 18.7601L1.95093 18.1007C1.7588 18.0443 1.64485 17.847 1.6921 17.6524L2.24469 15.3766C2.27812 15.2389 2.23108 15.0941 2.12308 15.0023L0.338337 13.4859C0.185748 13.3563 0.161926 13.1297 0.284226 12.9711L1.7147 11.1168C1.80126 11.0046 1.81717 10.8532 1.75583 10.7254L0.742151 8.61426C0.655484 8.43376 0.725909 8.21701 0.902119 8.12193L2.96313 7.00976C3.08785 6.94247 3.16397 6.81062 3.15989 6.66896L3.09255 4.32799C3.08679 4.12784 3.23929 3.95848 3.43894 3.94329L5.77412 3.76557C5.91543 3.75481 6.0386 3.66532 6.09249 3.53426L6.98313 1.36828C7.05927 1.1831 7.26747 1.0904 7.45604 1.15773L9.66162 1.94518C9.79508 1.99283 9.94401 1.96117 10.0465 1.86336L11.7412 0.246897Z" fill="#487DE7"></path><path d="M17 9L10.125 15.875L7 12.75" stroke="#F5F3F7" stroke-width="1.5" stroke-linecap="round" stroke-linejoin="round"></path></svg>